<?xml version="1.0" ?><svg enable-background="new 0 0 32 32" id="style_2_copy" version="1.1" viewBox="0 0 32 32" xml:space="preserve" xmlns="http://www.w3.org/2000/svg" xmlns:xlink="http://www.w3.org/1999/xlink"><g><g><g opacity="0.4"><path d="M16,31.75C7.315,31.75,0.25,24.685,0.25,16S7.315,0.25,16,0.25S31.75,7.315,31.75,16     S24.685,31.75,16,31.75z" fill="#E5E5E5"/><path d="M16,0.5c8.547,0,15.5,6.953,15.5,15.5c0,8.547-6.953,15.5-15.5,15.5S0.5,24.547,0.5,16     C0.5,7.453,7.453,0.5,16,0.5 M16,0C7.178,0,0,7.178,0,16c0,8.822,7.178,16,16,16s16-7.178,16-16C32,7.178,24.822,0,16,0L16,0z" fill="#CCCCCC"/></g><g><path d="M16,31.75C7.315,31.75,0.25,24.685,0.25,16S7.315,0.25,16,0.25S31.75,7.315,31.75,16     S24.685,31.75,16,31.75z" fill="#E5E5E5"/><path d="M16,0.5c8.547,0,15.5,6.953,15.5,15.5c0,8.547-6.953,15.5-15.5,15.5S0.5,24.547,0.5,16     C0.5,7.453,7.453,0.5,16,0.5 M16,0C7.178,0,0,7.178,0,16c0,8.822,7.178,16,16,16s16-7.178,16-16C32,7.178,24.822,0,16,0L16,0z" fill="#CCCCCC"/></g></g><g><path d="M16,30.625C7.936,30.625,1.375,24.064,1.375,16C1.375,7.936,7.936,1.375,16,1.375S30.625,7.936,30.625,16    C30.625,24.064,24.064,30.625,16,30.625z" fill="#FFFFFF"/><path d="M16,30.625C7.936,30.625,1.375,24.064,1.375,16C1.375,7.936,7.936,1.375,16,1.375S30.625,7.936,30.625,16    C30.625,24.064,24.064,30.625,16,30.625z" fill="#FFFFFF"/></g><g><g opacity="0.4"><path d="M16,29.754c-7.584,0-13.754-6.17-13.754-13.754C2.246,8.416,8.416,2.246,16,2.246S29.754,8.416,29.754,16     C29.754,23.584,23.584,29.754,16,29.754z" fill="#FFFFFF"/></g><path d="M16,29.754c-7.584,0-13.754-6.17-13.754-13.754C2.246,8.416,8.416,2.246,16,2.246S29.754,8.416,29.754,16    C29.754,23.584,23.584,29.754,16,29.754z" fill="#FFFFFF"/></g><g><g opacity="0.4"><path d="M16,29.754c-7.584,0-13.754-6.17-13.754-13.754C2.246,8.416,8.416,2.246,16,2.246S29.754,8.416,29.754,16     C29.754,23.584,23.584,29.754,16,29.754z" fill="#FFFFFF"/></g><path d="M16,29.754c-7.584,0-13.754-6.17-13.754-13.754C2.246,8.416,8.416,2.246,16,2.246S29.754,8.416,29.754,16    C29.754,23.584,23.584,29.754,16,29.754z" fill="#333333"/></g><g><g opacity="0.4"><path d="M16,28.577C9.065,28.577,3.423,22.935,3.423,16C3.423,9.065,9.065,3.423,16,3.423S28.577,9.065,28.577,16     C28.577,22.935,22.935,28.577,16,28.577z" fill="#FFFFFF"/></g><path d="M16,28.577C9.065,28.577,3.423,22.935,3.423,16C3.423,9.065,9.065,3.423,16,3.423S28.577,9.065,28.577,16    C28.577,22.935,22.935,28.577,16,28.577z" fill="#FFFFFF"/></g></g><g><path d="M18.886,8.455c0,0-3.464,0-4.65,0c-2.127,0-4.13,1.493-4.13,3.359c0,1.907,1.45,3.39,3.614,3.39   c0.151,0,0.297-0.034,0.441-0.045c-0.142,0.268-0.24,0.556-0.24,0.871c0,0.53,0.284,0.954,0.644,1.304   c-0.27,0-0.535,0.004-0.822,0.004c-2.635,0.001-4.664,1.678-4.664,3.418c0,1.714,2.224,2.788,4.859,2.788   c3.005,0,4.664-1.706,4.664-3.42c0-1.374-0.406-2.198-1.659-3.086c-0.429-0.303-1.249-1.041-1.249-1.476   c0-0.508,0.145-0.759,0.911-1.358c0.784-0.613,1.34-1.344,1.34-2.347c0-1.193-0.513-2.648-1.511-2.648h1.697L18.886,8.455z    M17.325,19.827c0.036,0.16,0.058,0.324,0.058,0.49c0,1.385-0.894,2.468-3.455,2.468c-1.822,0-3.137-1.153-3.137-2.538   c0-1.357,1.632-2.488,3.454-2.468c0.424,0.005,0.821,0.073,1.18,0.188C16.415,18.655,17.124,19.044,17.325,19.827z M14.407,14.66   c-1.223-0.035-2.385-1.368-2.596-2.972c-0.21-1.607,0.61-2.836,1.832-2.8c1.222,0.038,2.385,1.326,2.596,2.932   C16.45,13.425,15.63,14.696,14.407,14.66z" fill="#333333"/><polygon fill="#333333" points="22.658,14.485 22.658,12.222 21.149,12.222 21.149,14.485 18.886,14.485 18.886,15.994    21.149,15.994 21.149,18.257 22.658,18.257 22.658,15.994 24.921,15.994 24.921,14.485  "/></g></svg>